<svg width="42" height="40" viewBox="0 0 42 40" fill="none" xmlns="http://www.w3.org/2000/svg">
<path d="M4.10742 1.17236H37.8926C38.7095 1.17236 39.3892 1.45319 39.96 2.02393C40.5306 2.59463 40.8115 3.27449 40.8115 4.09131V29.8579C40.8115 30.6613 40.5314 31.3368 39.959 31.9106C39.3881 32.4832 38.709 32.7651 37.8926 32.7651H26.0645L25.917 32.9878L22.002 38.8657L21.999 38.8706C21.8725 39.0645 21.7232 39.2015 21.5527 39.2954C21.3775 39.3919 21.1955 39.439 21 39.439C20.8006 39.4389 20.6177 39.3914 20.4434 39.2954C20.2737 39.202 20.1271 39.0658 20.0039 38.8735L19.999 38.8667L16.085 32.9878L15.9365 32.7651H4.10742C3.29515 32.7651 2.61932 32.4837 2.05078 31.9116H2.0498C1.47958 31.3379 1.20117 30.6618 1.20117 29.8579V4.09131L1.21387 3.79053C1.27528 3.1051 1.55231 2.52219 2.0498 2.02295C2.61825 1.45257 3.29461 1.17242 4.10742 1.17236ZM3.5957 30.3579H17.2148L20.583 35.4409L21 36.0698L21.417 35.4409L24.7852 30.3579H38.4043V3.57861H3.5957V30.3579Z" fill="white" stroke="white"/>
</svg>
