<svg width="42" height="34" viewBox="0 0 42 34" fill="none" xmlns="http://www.w3.org/2000/svg">
<path d="M4.10718 1.17285H37.8923C38.6774 1.17285 39.3523 1.45494 39.9402 2.04297V2.04395C40.5283 2.63181 40.8113 3.3067 40.8113 4.0918V29.876C40.8113 30.5596 40.5951 31.1597 40.1472 31.6914L39.9412 31.915C39.3534 32.5011 38.678 32.7832 37.8923 32.7832H4.10718C3.32555 32.7831 2.65361 32.5018 2.06812 31.916C1.48225 31.3304 1.20093 30.6578 1.20093 29.876V4.0918L1.2146 3.80176C1.27652 3.13832 1.55554 2.55716 2.06812 2.04297H2.06909C2.65473 1.45505 3.32611 1.17291 4.10718 1.17285ZM3.60718 4.19727V30.376H38.3923V6.18848L37.6179 6.69922L21.6697 17.1982C21.5331 17.2701 21.409 17.3279 21.2966 17.3721C21.2296 17.3984 21.1341 17.4189 20.9998 17.4189C20.8654 17.4189 20.7699 17.3984 20.7029 17.3721C20.5894 17.3275 20.464 17.2692 20.3259 17.1963L4.60718 6.84668V4.85254L20.7263 15.4092L20.9998 15.5889L21.2732 15.4102L37.9656 4.50977L39.3728 3.5918H2.6814L3.60718 4.19727Z" fill="white" stroke="white"/>
</svg>
