<svg width="34" height="41" viewBox="0 0 34 41" fill="none" xmlns="http://www.w3.org/2000/svg">
<path d="M16.9998 1.17285C21.1786 1.17285 24.855 2.63227 28.0486 5.57031C31.2135 8.48172 32.8112 12.389 32.8113 17.3477C32.8113 19.3942 32.3598 21.4335 31.449 23.4688C30.5268 25.5295 29.3697 27.5026 27.9783 29.3867C26.581 31.2787 25.0629 33.0446 23.4236 34.6846C21.772 36.3371 20.23 37.8005 18.7986 39.0752L18.7878 39.0859C18.5522 39.3088 18.2798 39.4703 17.9656 39.5723C17.6268 39.6821 17.2998 39.7344 16.9841 39.7344C16.6688 39.7343 16.3489 39.6819 16.0222 39.5732C15.7191 39.4724 15.4568 39.3122 15.2302 39.0908L15.2214 39.083L15.2117 39.0742C13.7727 37.7999 12.2281 36.3367 10.5769 34.6846C8.93748 33.0445 7.41861 31.2789 6.02124 29.3867C4.62996 27.5028 3.47545 25.5302 2.55737 23.4697C1.65032 21.4343 1.20093 19.3947 1.20093 17.3477C1.20097 12.3888 2.79672 8.48167 5.95776 5.57031C9.14724 2.63249 12.821 1.17289 16.9998 1.17285ZM16.9998 3.5918C13.2571 3.5918 10.0764 4.87841 7.48999 7.4502C4.89515 10.0304 3.60722 13.3442 3.60718 17.3477C3.60718 20.0493 4.7389 23.0306 6.9187 26.2773C9.09909 29.5248 12.3505 33.1534 16.6589 37.1611L16.9958 37.4736L17.3357 37.165C21.7452 33.1647 25.0267 29.5361 27.1599 26.2793V26.2783C29.2889 23.0276 30.3923 20.0459 30.3923 17.3477C30.3923 13.3442 29.1044 10.0304 26.5095 7.4502C23.9226 4.87861 20.7422 3.59187 16.9998 3.5918ZM16.9958 13.8887C17.8598 13.8888 18.5812 14.1866 19.1892 14.792C19.7964 15.3966 20.0955 16.116 20.0955 16.9795C20.0954 17.8435 19.7977 18.5633 19.1931 19.167C18.5888 19.7703 17.8688 20.0673 17.0046 20.0674C16.2477 20.0674 15.6015 19.8409 15.0476 19.3818L14.8162 19.1709C14.2135 18.5705 13.9167 17.8526 13.9167 16.9883C13.9168 16.2313 14.1435 15.5837 14.6033 15.0264L14.8142 14.793C15.4148 14.1867 16.1325 13.8887 16.9958 13.8887Z" fill="white" stroke="white"/>
</svg>
