<svg width="38" height="38" viewBox="0 0 38 38" fill="none" xmlns="http://www.w3.org/2000/svg">
<path d="M3.23804 1.17285H10.238C10.7229 1.17287 11.1027 1.32398 11.4119 1.61523C11.7382 1.92245 11.9777 2.33474 12.116 2.87695V2.87793L13.4587 8.95312C13.5335 9.47116 13.5196 9.91131 13.4314 10.2822C13.3466 10.6387 13.1733 10.9406 12.905 11.1963L13.2498 11.5586L12.9041 11.1963L12.8982 11.2021L7.86206 16.1689L7.58276 16.4443L7.78296 16.7812C8.62693 18.1996 9.52294 19.5264 10.4705 20.7617C11.4172 21.9961 12.4689 23.1705 13.6238 24.2852V24.2861C14.8416 25.5455 16.1143 26.6865 17.4412 27.708C18.7698 28.731 20.1575 29.6252 21.6033 30.3906L21.9333 30.5654L22.1951 30.2979L27.0046 25.3623L27.0144 25.3525C27.3071 25.0348 27.6269 24.8163 27.9753 24.6855L28.1257 24.6348C28.5518 24.5084 28.9772 24.4872 29.4089 24.5703L35.0828 25.8262C35.5517 25.9557 35.9282 26.1753 36.2253 26.4824L36.3474 26.6201C36.6569 26.9938 36.8113 27.4214 36.8113 27.9238V34.7461C36.8112 35.3453 36.6141 35.8183 36.2263 36.2021C35.8358 36.5887 35.3629 36.7831 34.7742 36.7832C30.9414 36.7832 27.0291 35.8621 23.0339 34.0059C19.0396 32.1501 15.3299 29.5127 11.906 26.0889C8.48257 22.6654 5.84388 18.9545 3.98413 14.9561C2.12374 10.9566 1.20093 7.04631 1.20093 3.22168C1.20096 2.6976 1.3504 2.26701 1.64722 1.90723L1.78394 1.75781C2.17066 1.36897 2.64387 1.17285 3.23804 1.17285ZM3.63159 4.11328C3.69187 5.50241 3.91037 6.96626 4.28394 8.50293C4.65901 10.0457 5.24891 11.7578 6.04956 13.6367L6.3396 14.3154L6.86206 13.7949L10.9001 9.77832L11.0935 9.58594L11.0369 9.31934L9.89917 3.9873L9.81421 3.5918H3.60913L3.63159 4.11328ZM34.3923 28.1455L33.9939 28.0625L29.0232 27.0342L28.7507 26.9785L28.5593 27.1787L24.6335 31.293L24.1521 31.7979L24.7849 32.0918C26.1433 32.7237 27.6192 33.2388 29.2107 33.6377C30.8035 34.0368 32.3559 34.2751 33.8669 34.3516L34.3923 34.3779V28.1455Z" fill="white" stroke="white"/>
</svg>
